<svg width="282" height="50" viewBox="0 0 282 50" fill="none" xmlns="http://www.w3.org/2000/svg">
<path d="M76.3157 10.5264H59.2104C57.7571 10.5264 56.5789 11.7046 56.5789 13.1579V47.3685C56.5789 48.8218 57.7571 50 59.2104 50H76.3157C77.7691 50 78.9473 48.8218 78.9473 47.3685V13.1579C78.9473 11.7046 77.7691 10.5264 76.3157 10.5264Z" fill="#3459E5"/>
<path d="M76.3157 10.5264H59.2104C57.7571 10.5264 56.5789 11.7046 56.5789 13.1579V47.3685C56.5789 48.8218 57.7571 50 59.2104 50H76.3157C77.7691 50 78.9473 48.8218 78.9473 47.3685V13.1579C78.9473 11.7046 77.7691 10.5264 76.3157 10.5264Z" fill="#3459E5"/>
<path d="M76.3157 10.5264H59.2104C57.7571 10.5264 56.5789 11.7046 56.5789 13.1579V47.3685C56.5789 48.8218 57.7571 50 59.2104 50H76.3157C77.7691 50 78.9473 48.8218 78.9473 47.3685V13.1579C78.9473 11.7046 77.7691 10.5264 76.3157 10.5264Z" fill="#3459E5"/>
<path d="M19.7368 23.6842V50H59.2105V23.6842L19.7368 23.6842Z" fill="#3459E5"/>
<path d="M19.7368 23.6842V50H59.2105V23.6842L19.7368 23.6842Z" fill="#3459E5"/>
<path d="M19.7368 23.6842V50H59.2105V23.6842L19.7368 23.6842Z" fill="#3459E5"/>
<path d="M22.3684 2.63163V7.89479C22.3684 9.34817 23.5466 10.5264 25 10.5264L53.9474 10.5264C55.4007 10.5264 56.5789 9.34817 56.5789 7.89479V2.63163C56.5789 1.17825 55.4007 5.14984e-05 53.9474 5.14984e-05L25 5.14984e-05C23.5466 5.14984e-05 22.3684 1.17825 22.3684 2.63163Z" fill="#3459E5"/>
<path d="M22.3684 2.63163V7.89479C22.3684 9.34817 23.5466 10.5264 25 10.5264L53.9474 10.5264C55.4007 10.5264 56.5789 9.34817 56.5789 7.89479V2.63163C56.5789 1.17825 55.4007 5.14984e-05 53.9474 5.14984e-05L25 5.14984e-05C23.5466 5.14984e-05 22.3684 1.17825 22.3684 2.63163Z" fill="#3459E5"/>
<path d="M22.3684 2.63163V7.89479C22.3684 9.34817 23.5466 10.5264 25 10.5264L53.9474 10.5264C55.4007 10.5264 56.5789 9.34817 56.5789 7.89479V2.63163C56.5789 1.17825 55.4007 5.14984e-05 53.9474 5.14984e-05L25 5.14984e-05C23.5466 5.14984e-05 22.3684 1.17825 22.3684 2.63163Z" fill="#3459E5"/>
<path d="M19.7368 10.5264H2.63158C1.1782 10.5264 0 11.7046 0 13.1579V47.3685C0 48.8218 1.1782 50 2.63158 50H19.7368C21.1902 50 22.3684 48.8218 22.3684 47.3685V13.1579C22.3684 11.7046 21.1902 10.5264 19.7368 10.5264Z" fill="#3459E5"/>
<path d="M19.7368 10.5264H2.63158C1.1782 10.5264 0 11.7046 0 13.1579V47.3685C0 48.8218 1.1782 50 2.63158 50H19.7368C21.1902 50 22.3684 48.8218 22.3684 47.3685V13.1579C22.3684 11.7046 21.1902 10.5264 19.7368 10.5264Z" fill="#3459E5"/>
<path d="M19.7368 10.5264H2.63158C1.1782 10.5264 0 11.7046 0 13.1579V47.3685C0 48.8218 1.1782 50 2.63158 50H19.7368C21.1902 50 22.3684 48.8218 22.3684 47.3685V13.1579C22.3684 11.7046 21.1902 10.5264 19.7368 10.5264Z" fill="#3459E5"/>
<path d="M104.329 40.2764C102.013 40.2764 100.224 39.6843 98.9605 38.5001C97.6973 37.2895 97.0657 35.5132 97.0657 33.1711V14.2632H102V33.0527C102 34.0527 102.25 34.829 102.75 35.3816C103.276 35.9343 104 36.2106 104.921 36.2106C106.026 36.2106 106.947 35.9211 107.684 35.3422L109.066 38.8553C108.487 39.329 107.776 39.6843 106.934 39.9211C106.092 40.1579 105.224 40.2764 104.329 40.2764ZM93.592 23.0264V19.079H107.645V23.0264H93.592ZM121.905 40.2764C119.747 40.2764 117.826 39.8158 116.142 38.8948C114.457 37.9474 113.128 36.6579 112.155 35.0264C111.181 33.3948 110.694 31.5395 110.694 29.4606C110.694 27.3553 111.181 25.5001 112.155 23.8948C113.128 22.2632 114.457 20.9869 116.142 20.0658C117.826 19.1448 119.747 18.6843 121.905 18.6843C124.089 18.6843 126.023 19.1448 127.707 20.0658C129.418 20.9869 130.747 22.2501 131.694 23.8553C132.668 25.4606 133.155 27.329 133.155 29.4606C133.155 31.5395 132.668 33.3948 131.694 35.0264C130.747 36.6579 129.418 37.9474 127.707 38.8948C126.023 39.8158 124.089 40.2764 121.905 40.2764ZM121.905 36.0527C123.115 36.0527 124.194 35.7895 125.142 35.2632C126.089 34.7369 126.826 33.9737 127.352 32.9737C127.905 31.9737 128.181 30.8027 128.181 29.4606C128.181 28.0922 127.905 26.9211 127.352 25.9474C126.826 24.9474 126.089 24.1843 125.142 23.6579C124.194 23.1316 123.128 22.8685 121.944 22.8685C120.734 22.8685 119.655 23.1316 118.707 23.6579C117.786 24.1843 117.049 24.9474 116.497 25.9474C115.944 26.9211 115.668 28.0922 115.668 29.4606C115.668 30.8027 115.944 31.9737 116.497 32.9737C117.049 33.9737 117.786 34.7369 118.707 35.2632C119.655 35.7895 120.72 36.0527 121.905 36.0527ZM139.452 25.2369C138.557 25.2369 137.794 24.9343 137.162 24.329C136.531 23.6974 136.215 22.9079 136.215 21.9606C136.215 20.9606 136.531 20.1711 137.162 19.5922C137.794 18.9869 138.557 18.6843 139.452 18.6843C140.347 18.6843 141.11 18.9869 141.741 19.5922C142.373 20.1711 142.689 20.9606 142.689 21.9606C142.689 22.9079 142.373 23.6974 141.741 24.329C141.11 24.9343 140.347 25.2369 139.452 25.2369ZM139.452 40.2764C138.557 40.2764 137.794 39.9737 137.162 39.3685C136.531 38.7369 136.215 37.9474 136.215 37.0001C136.215 36.0001 136.531 35.2106 137.162 34.6316C137.794 34.0264 138.557 33.7237 139.452 33.7237C140.347 33.7237 141.11 34.0264 141.741 34.6316C142.373 35.2106 142.689 36.0001 142.689 37.0001C142.689 37.9474 142.373 38.7369 141.741 39.3685C141.11 39.9737 140.347 40.2764 139.452 40.2764ZM155.868 40.2764C153.553 40.2764 151.763 39.6843 150.5 38.5001C149.237 37.2895 148.605 35.5132 148.605 33.1711V14.2632H153.539V33.0527C153.539 34.0527 153.789 34.829 154.289 35.3816C154.816 35.9343 155.539 36.2106 156.46 36.2106C157.566 36.2106 158.487 35.9211 159.224 35.3422L160.605 38.8553C160.026 39.329 159.316 39.6843 158.474 39.9211C157.632 40.1579 156.763 40.2764 155.868 40.2764ZM145.132 23.0264V19.079H159.184V23.0264H145.132ZM173.444 40.2764C171.286 40.2764 169.365 39.8158 167.681 38.8948C165.997 37.9474 164.668 36.6579 163.694 35.0264C162.72 33.3948 162.233 31.5395 162.233 29.4606C162.233 27.3553 162.72 25.5001 163.694 23.8948C164.668 22.2632 165.997 20.9869 167.681 20.0658C169.365 19.1448 171.286 18.6843 173.444 18.6843C175.628 18.6843 177.562 19.1448 179.247 20.0658C180.957 20.9869 182.286 22.2501 183.233 23.8553C184.207 25.4606 184.694 27.329 184.694 29.4606C184.694 31.5395 184.207 33.3948 183.233 35.0264C182.286 36.6579 180.957 37.9474 179.247 38.8948C177.562 39.8158 175.628 40.2764 173.444 40.2764ZM173.444 36.0527C174.654 36.0527 175.733 35.7895 176.681 35.2632C177.628 34.7369 178.365 33.9737 178.891 32.9737C179.444 31.9737 179.72 30.8027 179.72 29.4606C179.72 28.0922 179.444 26.9211 178.891 25.9474C178.365 24.9474 177.628 24.1843 176.681 23.6579C175.733 23.1316 174.668 22.8685 173.483 22.8685C172.273 22.8685 171.194 23.1316 170.247 23.6579C169.325 24.1843 168.589 24.9474 168.036 25.9474C167.483 26.9211 167.207 28.0922 167.207 29.4606C167.207 30.8027 167.483 31.9737 168.036 32.9737C168.589 33.9737 169.325 34.7369 170.247 35.2632C171.194 35.7895 172.26 36.0527 173.444 36.0527ZM200.795 40.0001V12.3685H205.019L217.098 32.5395H214.887L226.769 12.3685H230.993L231.032 40.0001H226.177L226.137 19.9869H227.164L217.058 36.8422H214.769L204.506 19.9869H205.69V40.0001H200.795ZM251.009 40.0001V35.7369L250.733 34.829V27.3685C250.733 25.9211 250.298 24.8027 249.43 24.0132C248.562 23.1974 247.246 22.7895 245.483 22.7895C244.298 22.7895 243.127 22.9737 241.969 23.3422C240.838 23.7106 239.877 24.2237 239.088 24.8816L237.154 21.2895C238.285 20.4211 239.627 19.7764 241.18 19.3553C242.759 18.9079 244.39 18.6843 246.075 18.6843C249.127 18.6843 251.483 19.4211 253.14 20.8948C254.825 22.3422 255.667 24.5922 255.667 27.6448V40.0001H251.009ZM244.377 40.2764C242.798 40.2764 241.417 40.0132 240.233 39.4869C239.048 38.9343 238.127 38.1843 237.469 37.2369C236.838 36.2632 236.522 35.1711 236.522 33.9606C236.522 32.7764 236.798 31.7106 237.351 30.7632C237.93 29.8158 238.864 29.0658 240.154 28.5132C241.443 27.9606 243.154 27.6843 245.285 27.6843H251.404V30.9606H245.64C243.956 30.9606 242.825 31.2369 242.246 31.7895C241.667 32.3158 241.377 32.9737 241.377 33.7632C241.377 34.6579 241.733 35.3685 242.443 35.8948C243.154 36.4211 244.14 36.6843 245.404 36.6843C246.614 36.6843 247.693 36.4079 248.64 35.8553C249.614 35.3027 250.312 34.4869 250.733 33.4079L251.562 36.3685C251.088 37.6053 250.233 38.5658 248.996 39.2501C247.785 39.9343 246.246 40.2764 244.377 40.2764ZM261.999 40.0001V18.9211H266.934V40.0001H261.999ZM264.487 15.4474C263.566 15.4474 262.802 15.1579 262.197 14.579C261.618 14.0001 261.328 13.3027 261.328 12.4869C261.328 11.6448 261.618 10.9474 262.197 10.3948C262.802 9.81584 263.566 9.52637 264.487 9.52637C265.408 9.52637 266.158 9.80268 266.737 10.3553C267.342 10.8816 267.645 11.5527 267.645 12.3685C267.645 13.2369 267.355 13.9737 266.776 14.579C266.197 15.1579 265.434 15.4474 264.487 15.4474ZM273.41 40.0001V10.7106H278.345V40.0001H273.41Z" fill="#3459E5"/>
</svg>
