<svg width="50" height="32" viewBox="0 0 50 32" fill="none" xmlns="http://www.w3.org/2000/svg">
<g clip-path="url(#clip0_15_219)">
<path d="M48.3333 6.66666H37.5C36.5795 6.66666 35.8333 7.41285 35.8333 8.33332V30C35.8333 30.9205 36.5795 31.6667 37.5 31.6667H48.3333C49.2538 31.6667 50 30.9205 50 30V8.33332C50 7.41285 49.2538 6.66666 48.3333 6.66666Z" fill="#3459E5"/>
<path d="M48.3333 6.66666H37.5C36.5795 6.66666 35.8333 7.41285 35.8333 8.33332V30C35.8333 30.9205 36.5795 31.6667 37.5 31.6667H48.3333C49.2538 31.6667 50 30.9205 50 30V8.33332C50 7.41285 49.2538 6.66666 48.3333 6.66666Z" fill="#3459E5"/>
<path d="M48.3333 6.66666H37.5C36.5795 6.66666 35.8333 7.41285 35.8333 8.33332V30C35.8333 30.9205 36.5795 31.6667 37.5 31.6667H48.3333C49.2538 31.6667 50 30.9205 50 30V8.33332C50 7.41285 49.2538 6.66666 48.3333 6.66666Z" fill="#3459E5"/>
<path d="M12.5 15L12.5 31.6667H37.5V15H12.5Z" fill="#3459E5"/>
<path d="M12.5 15L12.5 31.6667H37.5V15H12.5Z" fill="#3459E5"/>
<path d="M12.5 15L12.5 31.6667H37.5V15H12.5Z" fill="#3459E5"/>
<path d="M14.1667 1.66666V4.99999C14.1667 5.92046 14.9129 6.66666 15.8333 6.66666L34.1667 6.66666C35.0871 6.66666 35.8333 5.92046 35.8333 4.99999V1.66666C35.8333 0.746182 35.0871 -9.53674e-06 34.1667 -9.53674e-06L15.8333 -9.53674e-06C14.9129 -9.53674e-06 14.1667 0.746182 14.1667 1.66666Z" fill="#3459E5"/>
<path d="M14.1667 1.66666V4.99999C14.1667 5.92046 14.9129 6.66666 15.8333 6.66666L34.1667 6.66666C35.0871 6.66666 35.8333 5.92046 35.8333 4.99999V1.66666C35.8333 0.746182 35.0871 -9.53674e-06 34.1667 -9.53674e-06L15.8333 -9.53674e-06C14.9129 -9.53674e-06 14.1667 0.746182 14.1667 1.66666Z" fill="#3459E5"/>
<path d="M14.1667 1.66666V4.99999C14.1667 5.92046 14.9129 6.66666 15.8333 6.66666L34.1667 6.66666C35.0871 6.66666 35.8333 5.92046 35.8333 4.99999V1.66666C35.8333 0.746182 35.0871 -9.53674e-06 34.1667 -9.53674e-06L15.8333 -9.53674e-06C14.9129 -9.53674e-06 14.1667 0.746182 14.1667 1.66666Z" fill="#3459E5"/>
<path d="M12.5 6.66666H1.66667C0.746192 6.66666 0 7.41285 0 8.33332V30C0 30.9205 0.746192 31.6667 1.66667 31.6667H12.5C13.4205 31.6667 14.1667 30.9205 14.1667 30V8.33332C14.1667 7.41285 13.4205 6.66666 12.5 6.66666Z" fill="#3459E5"/>
<path d="M12.5 6.66666H1.66667C0.746192 6.66666 0 7.41285 0 8.33332V30C0 30.9205 0.746192 31.6667 1.66667 31.6667H12.5C13.4205 31.6667 14.1667 30.9205 14.1667 30V8.33332C14.1667 7.41285 13.4205 6.66666 12.5 6.66666Z" fill="#3459E5"/>
<path d="M12.5 6.66666H1.66667C0.746192 6.66666 0 7.41285 0 8.33332V30C0 30.9205 0.746192 31.6667 1.66667 31.6667H12.5C13.4205 31.6667 14.1667 30.9205 14.1667 30V8.33332C14.1667 7.41285 13.4205 6.66666 12.5 6.66666Z" fill="#3459E5"/>
</g>
<defs>
<clipPath id="clip0_15_219">
<rect width="50" height="31.6667" fill="white"/>
</clipPath>
</defs>
</svg>
